<mxfile host="app.diagrams.net" modified="2023-01-24T12:58:34.441Z" agent="5.0 (Macintosh; Intel Mac OS X 10_15_7) AppleWebKit/537.36 (KHTML, like Gecko) Chrome/109.0.0.0 Safari/537.36" etag="xnAOlkmyewzsgNaOF2Xu" version="20.8.10" type="github">
  <diagram name="Page-1" id="tDPCMo1aDZYrP48thu4x">
    <mxGraphModel dx="954" dy="616" grid="1" gridSize="10" guides="1" tooltips="1" connect="1" arrows="1" fold="1" page="1" pageScale="1" pageWidth="850" pageHeight="1100" math="0" shadow="0">
      <root>
        <mxCell id="0" />
        <mxCell id="1" parent="0" />
        <mxCell id="Bo4kKnOjhFkPXgpN-wwi-42" style="edgeStyle=orthogonalEdgeStyle;rounded=0;orthogonalLoop=1;jettySize=auto;html=1;exitX=0.5;exitY=1;exitDx=0;exitDy=0;entryX=0.5;entryY=0;entryDx=0;entryDy=0;" edge="1" parent="1" source="Bo4kKnOjhFkPXgpN-wwi-1" target="Bo4kKnOjhFkPXgpN-wwi-3">
          <mxGeometry relative="1" as="geometry" />
        </mxCell>
        <mxCell id="Bo4kKnOjhFkPXgpN-wwi-1" value="start" style="ellipse;whiteSpace=wrap;html=1;" vertex="1" parent="1">
          <mxGeometry x="325" y="20" width="120" height="80" as="geometry" />
        </mxCell>
        <mxCell id="Bo4kKnOjhFkPXgpN-wwi-2" value="end" style="ellipse;whiteSpace=wrap;html=1;" vertex="1" parent="1">
          <mxGeometry x="330" y="730" width="120" height="80" as="geometry" />
        </mxCell>
        <mxCell id="Bo4kKnOjhFkPXgpN-wwi-44" style="edgeStyle=orthogonalEdgeStyle;rounded=0;orthogonalLoop=1;jettySize=auto;html=1;exitX=0.5;exitY=1;exitDx=0;exitDy=0;entryX=0.5;entryY=0;entryDx=0;entryDy=0;" edge="1" parent="1" source="Bo4kKnOjhFkPXgpN-wwi-3" target="Bo4kKnOjhFkPXgpN-wwi-4">
          <mxGeometry relative="1" as="geometry" />
        </mxCell>
        <mxCell id="Bo4kKnOjhFkPXgpN-wwi-3" value="declare a, b, c" style="shape=hexagon;perimeter=hexagonPerimeter2;whiteSpace=wrap;html=1;fixedSize=1;" vertex="1" parent="1">
          <mxGeometry x="280" y="150" width="210" height="50" as="geometry" />
        </mxCell>
        <mxCell id="Bo4kKnOjhFkPXgpN-wwi-45" style="edgeStyle=orthogonalEdgeStyle;rounded=0;orthogonalLoop=1;jettySize=auto;html=1;exitX=0.5;exitY=1;exitDx=0;exitDy=0;entryX=0.5;entryY=0;entryDx=0;entryDy=0;" edge="1" parent="1" source="Bo4kKnOjhFkPXgpN-wwi-4" target="Bo4kKnOjhFkPXgpN-wwi-7">
          <mxGeometry relative="1" as="geometry" />
        </mxCell>
        <mxCell id="Bo4kKnOjhFkPXgpN-wwi-4" value="INPUT&lt;br&gt;get value of a, get value of b, get value of c" style="shape=parallelogram;perimeter=parallelogramPerimeter;whiteSpace=wrap;html=1;fixedSize=1;" vertex="1" parent="1">
          <mxGeometry x="240" y="250" width="290" height="60" as="geometry" />
        </mxCell>
        <mxCell id="Bo4kKnOjhFkPXgpN-wwi-11" value="FALSE" style="edgeStyle=orthogonalEdgeStyle;rounded=0;orthogonalLoop=1;jettySize=auto;html=1;exitX=0;exitY=1;exitDx=0;exitDy=0;entryX=0.5;entryY=0;entryDx=0;entryDy=0;" edge="1" parent="1" source="Bo4kKnOjhFkPXgpN-wwi-7" target="Bo4kKnOjhFkPXgpN-wwi-9">
          <mxGeometry relative="1" as="geometry" />
        </mxCell>
        <mxCell id="Bo4kKnOjhFkPXgpN-wwi-12" style="edgeStyle=orthogonalEdgeStyle;rounded=0;orthogonalLoop=1;jettySize=auto;html=1;exitX=1;exitY=1;exitDx=0;exitDy=0;entryX=0.5;entryY=0;entryDx=0;entryDy=0;" edge="1" parent="1" source="Bo4kKnOjhFkPXgpN-wwi-7" target="Bo4kKnOjhFkPXgpN-wwi-8">
          <mxGeometry relative="1" as="geometry" />
        </mxCell>
        <mxCell id="Bo4kKnOjhFkPXgpN-wwi-14" value="TRUE" style="edgeLabel;html=1;align=center;verticalAlign=middle;resizable=0;points=[];" vertex="1" connectable="0" parent="Bo4kKnOjhFkPXgpN-wwi-12">
          <mxGeometry x="-0.0988" y="-1" relative="1" as="geometry">
            <mxPoint x="1" y="1" as="offset" />
          </mxGeometry>
        </mxCell>
        <mxCell id="Bo4kKnOjhFkPXgpN-wwi-7" value="a &amp;gt; b" style="rhombus;whiteSpace=wrap;html=1;" vertex="1" parent="1">
          <mxGeometry x="330" y="340" width="110" height="80" as="geometry" />
        </mxCell>
        <mxCell id="Bo4kKnOjhFkPXgpN-wwi-23" style="edgeStyle=orthogonalEdgeStyle;rounded=0;orthogonalLoop=1;jettySize=auto;html=1;exitX=1;exitY=1;exitDx=0;exitDy=0;" edge="1" parent="1" source="Bo4kKnOjhFkPXgpN-wwi-8">
          <mxGeometry relative="1" as="geometry">
            <mxPoint x="720" y="540" as="targetPoint" />
            <Array as="points">
              <mxPoint x="590" y="480" />
              <mxPoint x="720" y="480" />
            </Array>
          </mxGeometry>
        </mxCell>
        <mxCell id="Bo4kKnOjhFkPXgpN-wwi-37" value="TRUE" style="edgeLabel;html=1;align=center;verticalAlign=middle;resizable=0;points=[];" vertex="1" connectable="0" parent="Bo4kKnOjhFkPXgpN-wwi-23">
          <mxGeometry x="0.1905" y="-1" relative="1" as="geometry">
            <mxPoint y="1" as="offset" />
          </mxGeometry>
        </mxCell>
        <mxCell id="Bo4kKnOjhFkPXgpN-wwi-32" style="edgeStyle=orthogonalEdgeStyle;rounded=0;orthogonalLoop=1;jettySize=auto;html=1;exitX=0;exitY=0.5;exitDx=0;exitDy=0;" edge="1" parent="1" source="Bo4kKnOjhFkPXgpN-wwi-8">
          <mxGeometry relative="1" as="geometry">
            <mxPoint x="400" y="550" as="targetPoint" />
          </mxGeometry>
        </mxCell>
        <mxCell id="Bo4kKnOjhFkPXgpN-wwi-36" value="FALSE" style="edgeLabel;html=1;align=center;verticalAlign=middle;resizable=0;points=[];" vertex="1" connectable="0" parent="Bo4kKnOjhFkPXgpN-wwi-32">
          <mxGeometry x="-0.41" y="-1" relative="1" as="geometry">
            <mxPoint as="offset" />
          </mxGeometry>
        </mxCell>
        <mxCell id="Bo4kKnOjhFkPXgpN-wwi-8" value="a &amp;gt; c" style="rhombus;whiteSpace=wrap;html=1;" vertex="1" parent="1">
          <mxGeometry x="530" y="440" width="80" height="80" as="geometry" />
        </mxCell>
        <mxCell id="Bo4kKnOjhFkPXgpN-wwi-31" style="edgeStyle=orthogonalEdgeStyle;rounded=0;orthogonalLoop=1;jettySize=auto;html=1;exitX=1;exitY=0.5;exitDx=0;exitDy=0;entryX=0.575;entryY=-0.042;entryDx=0;entryDy=0;entryPerimeter=0;" edge="1" parent="1" source="Bo4kKnOjhFkPXgpN-wwi-9" target="Bo4kKnOjhFkPXgpN-wwi-17">
          <mxGeometry relative="1" as="geometry">
            <Array as="points">
              <mxPoint x="399" y="480" />
            </Array>
          </mxGeometry>
        </mxCell>
        <mxCell id="Bo4kKnOjhFkPXgpN-wwi-35" value="FALSE" style="edgeLabel;html=1;align=center;verticalAlign=middle;resizable=0;points=[];" vertex="1" connectable="0" parent="Bo4kKnOjhFkPXgpN-wwi-31">
          <mxGeometry x="-0.5179" y="1" relative="1" as="geometry">
            <mxPoint y="1" as="offset" />
          </mxGeometry>
        </mxCell>
        <mxCell id="Bo4kKnOjhFkPXgpN-wwi-33" style="edgeStyle=orthogonalEdgeStyle;rounded=0;orthogonalLoop=1;jettySize=auto;html=1;exitX=0;exitY=0.5;exitDx=0;exitDy=0;entryX=0.5;entryY=0;entryDx=0;entryDy=0;" edge="1" parent="1" source="Bo4kKnOjhFkPXgpN-wwi-9" target="Bo4kKnOjhFkPXgpN-wwi-18">
          <mxGeometry relative="1" as="geometry" />
        </mxCell>
        <mxCell id="Bo4kKnOjhFkPXgpN-wwi-34" value="TRUE" style="edgeLabel;html=1;align=center;verticalAlign=middle;resizable=0;points=[];" vertex="1" connectable="0" parent="Bo4kKnOjhFkPXgpN-wwi-33">
          <mxGeometry x="-0.3286" y="2" relative="1" as="geometry">
            <mxPoint as="offset" />
          </mxGeometry>
        </mxCell>
        <mxCell id="Bo4kKnOjhFkPXgpN-wwi-9" value="b &amp;gt; c" style="rhombus;whiteSpace=wrap;html=1;" vertex="1" parent="1">
          <mxGeometry x="150" y="440" width="80" height="80" as="geometry" />
        </mxCell>
        <mxCell id="Bo4kKnOjhFkPXgpN-wwi-41" style="edgeStyle=orthogonalEdgeStyle;rounded=0;orthogonalLoop=1;jettySize=auto;html=1;exitX=0.5;exitY=1;exitDx=0;exitDy=0;" edge="1" parent="1" source="Bo4kKnOjhFkPXgpN-wwi-16">
          <mxGeometry relative="1" as="geometry">
            <mxPoint x="390" y="730" as="targetPoint" />
          </mxGeometry>
        </mxCell>
        <mxCell id="Bo4kKnOjhFkPXgpN-wwi-16" value="OUTPUT a" style="shape=parallelogram;perimeter=parallelogramPerimeter;whiteSpace=wrap;html=1;fixedSize=1;" vertex="1" parent="1">
          <mxGeometry x="650" y="550" width="120" height="60" as="geometry" />
        </mxCell>
        <mxCell id="Bo4kKnOjhFkPXgpN-wwi-39" style="edgeStyle=orthogonalEdgeStyle;rounded=0;orthogonalLoop=1;jettySize=auto;html=1;exitX=0.5;exitY=1;exitDx=0;exitDy=0;" edge="1" parent="1" source="Bo4kKnOjhFkPXgpN-wwi-17">
          <mxGeometry relative="1" as="geometry">
            <mxPoint x="390" y="730" as="targetPoint" />
          </mxGeometry>
        </mxCell>
        <mxCell id="Bo4kKnOjhFkPXgpN-wwi-17" value="OUTPUT c" style="shape=parallelogram;perimeter=parallelogramPerimeter;whiteSpace=wrap;html=1;fixedSize=1;" vertex="1" parent="1">
          <mxGeometry x="330" y="550" width="120" height="60" as="geometry" />
        </mxCell>
        <mxCell id="Bo4kKnOjhFkPXgpN-wwi-40" style="edgeStyle=orthogonalEdgeStyle;rounded=0;orthogonalLoop=1;jettySize=auto;html=1;exitX=0.5;exitY=1;exitDx=0;exitDy=0;entryX=0.5;entryY=0;entryDx=0;entryDy=0;" edge="1" parent="1" source="Bo4kKnOjhFkPXgpN-wwi-18" target="Bo4kKnOjhFkPXgpN-wwi-2">
          <mxGeometry relative="1" as="geometry" />
        </mxCell>
        <mxCell id="Bo4kKnOjhFkPXgpN-wwi-18" value="OUTPUT b" style="shape=parallelogram;perimeter=parallelogramPerimeter;whiteSpace=wrap;html=1;fixedSize=1;" vertex="1" parent="1">
          <mxGeometry x="20" y="550" width="120" height="60" as="geometry" />
        </mxCell>
      </root>
    </mxGraphModel>
  </diagram>
</mxfile>
